<svg xmlns="http://www.w3.org/2000/svg" xmlns:xlink="http://www.w3.org/1999/xlink" viewBox="0 0 534.36 362.21"><defs><style>.cls-1{isolation:isolate;}.cls-2{fill:#e0f4fc;}.cls-3{fill:#00b3f9;}.cls-4{fill:#0d5375;}.cls-5{fill:#65b8d1;}.cls-15,.cls-23,.cls-24,.cls-34,.cls-6{mix-blend-mode:overlay;opacity:0.25;}.cls-7{fill:#8bdef2;}.cls-16,.cls-17,.cls-24,.cls-25,.cls-27,.cls-34,.cls-8{fill:none;}.cls-8{stroke:#65b8d1;}.cls-16,.cls-17,.cls-24,.cls-25,.cls-34,.cls-8{stroke-miterlimit:10;stroke-width:1.29px;}.cls-9{fill:#a5cad3;}.cls-10{fill:#cae7ef;}.cls-11,.cls-12,.cls-23{fill:#fff;}.cls-11{opacity:0.55;}.cls-13{fill:#008eba;}.cls-14{fill:#02374c;}.cls-16,.cls-17,.cls-24,.cls-25{stroke:#f9f9f9;}.cls-16,.cls-17,.cls-25,.cls-34{stroke-linecap:round;}.cls-17{stroke-dasharray:4.36 4.36;}.cls-18{fill:url(#linear-gradient);}.cls-19{fill:#0c1c28;}.cls-20{fill:url(#linear-gradient-2);}.cls-21{fill:#07171c;}.cls-22{fill:url(#linear-gradient-3);}.cls-25{stroke-dasharray:4.62 4.62;}.cls-26{fill:#1c1c1c;}.cls-28{fill:url(#linear-gradient-4);}.cls-29{fill:url(#linear-gradient-5);}.cls-30{fill:#3a1508;}.cls-31{fill:#11191e;}.cls-32{fill:#1c262d;}.cls-33{fill:#add0d8;}.cls-34{stroke:#000;}.cls-35{fill:#55c6ff;}.cls-36{fill:#003c54;}.cls-37{fill:#16374c;}</style><linearGradient id="linear-gradient" x1="317.38" y1="249.2" x2="401.77" y2="256.99" gradientUnits="userSpaceOnUse"><stop offset="0" stop-color="#ffa894"/><stop offset="1" stop-color="#fc7b65"/></linearGradient><linearGradient id="linear-gradient-2" x1="373.28" y1="261.45" x2="457.59" y2="269.24" xlink:href="#linear-gradient"/><linearGradient id="linear-gradient-3" x1="427.02" y1="224.07" x2="436.79" y2="194.29" xlink:href="#linear-gradient"/><linearGradient id="linear-gradient-4" x1="324.48" y1="237.56" x2="323.11" y2="271.47" gradientUnits="userSpaceOnUse"><stop offset="0" stop-color="#ffb000"/><stop offset="1" stop-color="#ff6700"/></linearGradient><linearGradient id="linear-gradient-5" x1="245.82" y1="186.46" x2="243.16" y2="229.91" gradientUnits="userSpaceOnUse"><stop offset="0" stop-color="#4c1710"/><stop offset="1" stop-color="#723328"/></linearGradient></defs><g class="cls-1"><g id="OBJECTS"><path class="cls-2" d="M513.94,311.4a15.33,15.33,0,0,0,15.32,15.32h47.62a23.62,23.62,0,0,1,22.27,15.74A23.61,23.61,0,0,1,576.88,374H500.64a5.94,5.94,0,0,0-5.94,6,5.94,5.94,0,0,0,5.94,5.94h34.74a21,21,0,0,1,5.36.81l.29.08A20.91,20.91,0,0,1,535,427.67H199.19a20,20,0,0,1-14.12-34.1l.68-.65a19.89,19.89,0,0,1,13.44-5.19H206a8.28,8.28,0,0,0,7.58-11.61,8.12,8.12,0,0,0-1.72-2.52,8.26,8.26,0,0,0-5.86-2.43H140.47a20.37,20.37,0,0,1-20.27-18.33c-.06-.67-.09-1.34-.09-2a20.37,20.37,0,0,1,20.36-20.36h28.78a13.41,13.41,0,0,0,0-26.81H127.44a24.44,24.44,0,1,1,0-48.88h31.7a21.45,21.45,0,0,0,21.45-21.46V150.1a11.79,11.79,0,0,1,11.79-11.79,11.8,11.8,0,0,0,11.79-11.79V104.64a39.19,39.19,0,0,1,39.19-39.19H497.45a19.71,19.71,0,0,1,0,39.41h-21.2a9.85,9.85,0,1,0,0,19.7h93.08a34.25,34.25,0,1,1,0,68.5,29.23,29.23,0,0,0-29.27,29.27V223a29.27,29.27,0,0,0,29.27,29.27h9.25a21.92,21.92,0,0,1,21.92,21.93q0,.87-.06,1.71a22,22,0,0,1-21.86,20.22H529.26A15.31,15.31,0,0,0,513.94,311.4Z" transform="translate(-103 -65.45)"/><circle class="cls-2" cx="162.72" cy="114.25" r="13.29" transform="translate(-136.13 83.07) rotate(-45)"/><circle class="cls-2" cx="624.08" cy="347.52" r="13.29" transform="translate(-188.49 199.82) rotate(-22.5)"/><path class="cls-3" d="M398.46,344.06a1.59,1.59,0,0,1-.57-.1,1.61,1.61,0,0,1-1-1.51V299.29a1.61,1.61,0,0,1,1.61-1.6h38.26a1.61,1.61,0,0,1,1.2,2.67l-38.26,43.16A1.6,1.6,0,0,1,398.46,344.06Zm1.6-43.16v37.32l33.09-37.32Z" transform="translate(-103 -65.45)"/><path class="cls-4" d="M442.67,302.5H379.88a3.21,3.21,0,0,1-3.21-3.21h0a3.21,3.21,0,0,1,3.21-3.2h62.79a3.2,3.2,0,0,1,3.21,3.2h0A3.21,3.21,0,0,1,442.67,302.5Z" transform="translate(-103 -65.45)"/><path class="cls-5" d="M517.15,212.46s-12.23,81.64-12.5,82.46-33.17,44.39-33.17,44.39l-20.9-12.59-7.85-77,16.23-35,1.06-2.28h11.46S475.3,204,486.6,204a16.73,16.73,0,0,1,4.9.66l.06,0,.08,0a8.93,8.93,0,0,1,6.57,7.76Z" transform="translate(-103 -65.45)"/><path class="cls-6" d="M517.15,212.46s-12.23,81.64-12.5,82.46-33.17,44.39-33.17,44.39l-20.9-12.59-7.85-77,16.23-35c2.81.23,7.15,2.68,12.52,12.54,9.7,17.79,14.74,21.23,21.61,21,5.38-.18,8.37-24.8,18.43-35.82Z" transform="translate(-103 -65.45)"/><path class="cls-7" d="M506.31,212.46h-8.1a8.93,8.93,0,0,0-6.57-7.76c1.35.38,12.18,3.52,13.25,5.16A19.81,19.81,0,0,1,506.31,212.46Z" transform="translate(-103 -65.45)"/><path class="cls-4" d="M403.52,342.45a5.07,5.07,0,1,1-5.06-5.06A5.07,5.07,0,0,1,403.52,342.45Z" transform="translate(-103 -65.45)"/><path class="cls-8" d="M220.22,159l6.38-16.48a1.32,1.32,0,0,1,2.45,0l7.22,17.48" transform="translate(-103 -65.45)"/><circle class="cls-9" cx="227.77" cy="182.62" r="25.43" transform="translate(-108.81 292.3) rotate(-75.58)"/><circle class="cls-10" cx="229.6" cy="182.62" r="25.43" transform="translate(-164.89 150.39) rotate(-45)"/><circle class="cls-11" cx="229.6" cy="182.62" r="16.94" transform="translate(-144.88 228.37) rotate(-60.77)"/><path class="cls-8" d="M317.15,103.9l6.37-16.47a1.32,1.32,0,0,1,2.45-.05l7.23,17.48" transform="translate(-103 -65.45)"/><circle class="cls-10" cx="221.69" cy="62.09" r="25.43"/><circle class="cls-12" cx="223.53" cy="62.09" r="25.43"/><circle class="cls-10" cx="223.53" cy="62.09" r="16.94"/><polygon class="cls-13" points="282.46 362.21 276.42 362.21 237.99 214.67 244.02 214.67 282.46 362.21"/><polygon class="cls-6" points="282.46 362.21 279.16 362.21 240.72 214.67 244.02 214.67 282.46 362.21"/><path class="cls-4" d="M408.4,314.87l-3.28,8.56s-3.57,5.48-8.25,11.48l-.15.2a.31.31,0,0,0-.07.09c-4.39,5.59-9.69,11.55-13.93,13.89-3.7,2-11.24,12.89-18.85,24.87-10.69,16.84-21.52,35.91-22.06,35.91-.92,0-14.05-7.33-14.36-8.85s24.74-53.91,32.35-66.48c.23-.38.44-.73.64-1,2.7-4.17,8.09-8.63,13.57-12.48,2.24-1.57,4.49-3,6.57-4.34,5.54-3.45,9.95-5.74,9.95-5.74l15.73,3.45Z" transform="translate(-103 -65.45)"/><path class="cls-14" d="M378.31,325.72c-3.36,2.15-11.46,10.54-13.9,11-1.53.29-3.42-1.1-4.61-2.17.23-.38.44-.73.64-1,3.81-5.88,12.93-12.32,20.14-16.82A6.13,6.13,0,0,1,378.31,325.72Z" transform="translate(-103 -65.45)"/><path class="cls-6" d="M406.26,314.4c-1.75,4.83-7.86,18.32-9.39,20.51l-.15.2a.31.31,0,0,0-.07.09c-4.39,5.59-9.69,11.55-13.93,13.89-3.7,2-11.24,12.89-18.85,24.87C370,357.91,373,332.34,374,321c2.24-1.57,4.49-3,6.57-4.34,5.54-3.45,9.95-5.74,9.95-5.74Z" transform="translate(-103 -65.45)"/><g class="cls-15"><path class="cls-16" d="M385.06,330.45a16.71,16.71,0,0,0-1.78,1.37" transform="translate(-103 -65.45)"/><path class="cls-17" d="M380.11,334.8c-3.43,3.53-8.41,9.56-14.17,19.33-8.62,14.6-19.21,37.47-23.39,46.67" transform="translate(-103 -65.45)"/><path class="cls-16" d="M341.65,402.79c-.59,1.31-.91,2-.91,2" transform="translate(-103 -65.45)"/></g><path class="cls-4" d="M469.74,333.2c-4.21,6.88-12.43,5-24.74,3.36s-32-.3-34.92.77c-1.75.64-7,27.25-11.51,48.52-2.39,11.38-4.54,21.22-5.79,24.77h0c-.29.83-.54,1.31-.72,1.39-2.44.91-10.24,2.59-15.89-2.45-.91-15.55-.37-52.35,3.35-75.63,1.26-7.81,2.87-14.09,4.9-17.54s6.54-6.13,12.07-8.11l.05,0,.09,0,.47-.17A106.21,106.21,0,0,1,418,303.64c3.32,4.76,13.53,2.88,21.36,4.09a52.65,52.65,0,0,0,6.58.52c9,.25,21-.87,23.79-3.51C470,305.15,478.36,319.19,469.74,333.2Z" transform="translate(-103 -65.45)"/><path class="cls-6" d="M469.74,333.2c-4.21,6.88-12.43,5-24.74,3.36s-32-.3-34.92.77c-1.75.64-7,27.25-11.51,48.52,1.68-20.13,4.76-55.52,5.7-55.4,1.22.15,5.66,4.66,5.66,4.66s37.91-4.59,33.47-10.42S421.61,308.88,413.59,307c-7.44-1.69-15.8.83-17,1.2l.47-.17A106.21,106.21,0,0,1,418,303.64c3.32,4.76,13.53,2.88,21.36,4.09a52.65,52.65,0,0,0,6.58.52c9,.25,21-.87,23.79-3.51C470,305.15,478.36,319.19,469.74,333.2Z" transform="translate(-103 -65.45)"/><path class="cls-18" d="M405.12,261,395.88,262s-9.14-.26-19.94-.59c-14.09-.43-31-1-34.29-1.24-5.8-.45-16.65-2.9-15.88-4.58s7.64-2.44,10.84-2.6,8.86,2.6,11,2.6c1.86,0,25.27-.92,32.86-1.36,1.17-.07,2-.13,2.25-.17,2.11-.3,10.88-6.6,10.88-6.6l6.64,1.83Z" transform="translate(-103 -65.45)"/><path class="cls-6" d="M405.12,261,395.88,262s-9.14-.26-19.94-.59l4.53-7.18c1.17-.07,2-.13,2.25-.17,2.11-.3,10.88-6.6,10.88-6.6l6.64,1.83Z" transform="translate(-103 -65.45)"/><path class="cls-19" d="M470.3,304a2,2,0,0,1-.56.79h0c-2.83,2.64-14.75,3.76-23.79,3.51a52.65,52.65,0,0,1-6.58-.52c-7.83-1.21-18,.67-21.36-4.09a5.83,5.83,0,0,1-1-2.44c-1.27-7.16,3.62-17.12,3-28.47-.06-1-.16-2-.31-3l-.48-3.32c-.09-.67-.19-1.33-.28-2-.44-3.16-.85-6.31-1.2-9.33-5.45,2.71-12.8,6.51-14.45,6.29a3.26,3.26,0,0,1-1.37-.8c-3.33-2.83-9.42-12.21-8.14-13.29,1.5-1.26,29.91-21.77,29.91-21.77a39.26,39.26,0,0,1,8.85-5c1.3-.54,2.66-1,4.08-1.48h0c1.68-.54,3.45-1,5.3-1.4,0,0,1,.18,2.61.52h.06c1.09.23,2.43.53,3.91.91l.16,0c5.79,1.47,13.53,4,15.68,7.52a14.45,14.45,0,0,1,1.29,4.26c2.45,12.84,3,47,3.52,52.7C469.72,290.2,471.67,299.94,470.3,304Z" transform="translate(-103 -65.45)"/><path class="cls-6" d="M470.3,304c-1.1,3.2-14.46,4.58-24.35,4.3,7.52-1.94,12.2-5.56,12.63-9.11.69-5.81-4.82-7.79-15.68-10.23-7.25-1.64-17.14-10.48-22.9-16.18-.06-1-.16-2-.31-3l-.48-3.32c15.27-7.54,43.69-39.1,43.69-39.1l2.73,3.58c2.45,12.84,3,47,3.52,52.7C469.72,290.2,471.67,299.94,470.3,304Z" transform="translate(-103 -65.45)"/><path class="cls-6" d="M420.64,258.52v6l-1.71-.09c-.44-3.16-.85-6.31-1.2-9.33-5.45,2.71-12.8,6.51-14.45,6.29a3.26,3.26,0,0,1-1.37-.8c8.27-5,15.44-24.05,18.73-25.55C418.53,239,420.64,258.52,420.64,258.52Z" transform="translate(-103 -65.45)"/><path class="cls-19" d="M471.48,245.68c.07,5.76-3.17,13.6-5.73,18.05-1.24,2.13-2.31,3.49-2.79,3.45a5.82,5.82,0,0,1-1.41-.5c-3.9-1.73-14-7.66-15.88-13,.54-.94,1.07-1.85,1.6-2.74,9.08-15.4,16.09-24.47,16.69-24.86C464,226.06,471.28,229.69,471.48,245.68Z" transform="translate(-103 -65.45)"/><path class="cls-20" d="M461.55,266.68c-1.77,2.25-5.12,6.36-8.6,10-3.88,4.06-7.94,7.51-10.15,7.06-5.09-1-40-26.74-43.3-27.26s-16.83.69-16.78-.23,7.39-8.76,10.88-8.76,11.69,4.29,15.24,4.69,31.44,10.77,31.44,10.77l3.12-5.37,2.27-3.91C447.52,259,457.65,265,461.55,266.68Z" transform="translate(-103 -65.45)"/><path class="cls-6" d="M448.66,219.08c-2.46,6.87-10,12-14.41,10.07-3.67-1.59-2.47-6.48-1.72-8.67,1.3-.54,2.66-1,4.08-1.48h0l7.91-.88h.06l3.91.91Z" transform="translate(-103 -65.45)"/><path class="cls-21" d="M424.78,209.29l-3.33.57L421,210c-2.66.47-5.43-2.66-6.18-7s.78-8.2,3.44-8.67l3.8-.66a3.07,3.07,0,0,0-1.3.56,3.8,3.8,0,0,0-.49.41,6.14,6.14,0,0,0-1.48,2.72,12.09,12.09,0,0,0,1.68,9.6,6.16,6.16,0,0,0,2.32,2A3.37,3.37,0,0,0,424.78,209.29Z" transform="translate(-103 -65.45)"/><path class="cls-6" d="M424.78,209.29l-3.33.57c-2.16-.6-4.14-3.34-4.75-6.89-.76-4.32.77-8.2,3.43-8.67l.61-.1a3.8,3.8,0,0,0-.49.41,6.14,6.14,0,0,0-1.48,2.72,12.09,12.09,0,0,0,1.68,9.6,6.16,6.16,0,0,0,2.32,2A3.37,3.37,0,0,0,424.78,209.29Z" transform="translate(-103 -65.45)"/><path class="cls-19" d="M451.17,190.21c-.39,7.11-3.09,15.37-8.12,20.94h0L438,194s-5.42,2.29-11.76,4.74c-3.17,1.22-5.75,2.22-8.29,2.45a12.56,12.56,0,0,1-8-2.07,8.57,8.57,0,0,1-2.87-11.33,5.34,5.34,0,0,1,4.63-2.61c1.37-10.54,9.79-12.72,14.92-7.45a.8.8,0,0,0,.25.18h0c1.84.87,8.87-.76,8.87-.76s2.19-2.65,6.94-1.8a15,15,0,0,1,3.71,1.23C450,178.21,451.53,183.73,451.17,190.21Z" transform="translate(-103 -65.45)"/><path class="cls-22" d="M445.29,218.8c-2.07,7.41-9.09,8.25-10.08,7.63-.47-.28-1.4-2.3-2.25-4.33s-1.62-4.12-1.74-4.45a.06.06,0,0,0,0,0,.62.62,0,0,1-.19.07,2.52,2.52,0,0,1-1,0,9.14,9.14,0,0,1-3.31-1.41c-5.45-3.38-7.83-11.39-8.55-14.44l-.15-.67c2.54-.23,5.12-1.23,8.29-2.45C432.61,196.27,438,194,438,194l3.89,13.37,1.12,3.81h0A44.73,44.73,0,0,0,445.29,218.8Z" transform="translate(-103 -65.45)"/><path class="cls-6" d="M451.17,190.21c-.39,7.11-3.09,15.37-8.12,20.94h0L438,194s-5.42,2.29-11.76,4.74c-3.17,1.22-5.75,2.22-8.29,2.45a12.56,12.56,0,0,1-8-2.07,8.57,8.57,0,0,1-2.87-11.33,9.24,9.24,0,0,0,4,8.2s-1.09-3.31.46-5.77c.05,2.87,1.78,5.73,8.1,6.39s13.67-4,12.35-10.05A14.48,14.48,0,0,0,427,177.9c1.84.87,8.87-.76,8.87-.76s2.19-2.65,6.94-1.8c-2.22,2.93,4.49,11.54,7.53,13.88A4,4,0,0,1,451.17,190.21Z" transform="translate(-103 -65.45)"/><path class="cls-6" d="M433,222.1c-.85-2-1.62-4.12-1.74-4.45,1.48-.19,4-1.08,5.92-4.54C438,215,434.36,220.21,433,222.1Z" transform="translate(-103 -65.45)"/><path class="cls-6" d="M441.92,207.35c-5-3.08-9.79-7.73-17.14-6.18a25.33,25.33,0,0,1-6.65.67l-.15-.67c2.54-.23,5.12-1.23,8.29-2.45C432.61,196.27,438,194,438,194Z" transform="translate(-103 -65.45)"/><path class="cls-3" d="M442.36,188.58l-4.28,1.62s0-.31-.13-.83c-.54-3-2.91-12.9-10.24-11.27,1.05-2.3,11.45-4.11,14.21,8A24.55,24.55,0,0,1,442.36,188.58Z" transform="translate(-103 -65.45)"/><path class="cls-3" d="M446.65,204a3.3,3.3,0,0,1-2-.3,6.19,6.19,0,0,1-2.32-2.06,12.07,12.07,0,0,1-1.68-9.59,6.09,6.09,0,0,1,1.48-2.72,3.27,3.27,0,0,1,1.8-1c2.65-.47,5.42,2.65,6.18,7S449.32,203.48,446.65,204Z" transform="translate(-103 -65.45)"/><path class="cls-21" d="M448.44,200.38a2,2,0,0,1-.92-.07l-.26-.11a3,3,0,0,1-.8-.56,3.89,3.89,0,0,1-.56-.64,7.1,7.1,0,0,1-1-5.64,4.28,4.28,0,0,1,.31-.8,2.94,2.94,0,0,1,.56-.79,1.19,1.19,0,0,1,.18-.15,1.86,1.86,0,0,1,.87-.42c1.56-.28,3.19,1.56,3.63,4.09S450,200.1,448.44,200.38Z" transform="translate(-103 -65.45)"/><path class="cls-6" d="M448.07,200.45a2.34,2.34,0,0,1-1.6,1.34,1.77,1.77,0,0,1-.91-.07l-.27-.1a3.12,3.12,0,0,1-.8-.57,3.89,3.89,0,0,1-.56-.64,6.72,6.72,0,0,1-1.09-2.71,6.81,6.81,0,0,1,.07-2.79,7.19,7.19,0,0,0,.11,1.71,6.81,6.81,0,0,0,1.08,2.72,3.65,3.65,0,0,0,1.37,1.2,1.92,1.92,0,0,0,1.17.18Z" transform="translate(-103 -65.45)"/><path class="cls-21" d="M446.65,204l-3.79.66c-2.67.47-5.44-2.65-6.19-7s.78-8.2,3.44-8.67l3.81-.66a3.27,3.27,0,0,0-1.8,1,6.09,6.09,0,0,0-1.48,2.72,12.07,12.07,0,0,0,1.68,9.59,6.19,6.19,0,0,0,2.32,2.06A3.3,3.3,0,0,0,446.65,204Z" transform="translate(-103 -65.45)"/><path class="cls-6" d="M442.36,188.58l-4.28,1.62s0-.31-.13-.83c1-1.88,2.46-3.13,4-3.32A24.55,24.55,0,0,1,442.36,188.58Z" transform="translate(-103 -65.45)"/><path class="cls-13" d="M448.44,200.38l-.37.07-1.43.27a1.92,1.92,0,0,1-1.17-.18,3.65,3.65,0,0,1-1.37-1.2,6.81,6.81,0,0,1-1.08-2.72,7.19,7.19,0,0,1-.11-1.71h0a7,7,0,0,1,.21-1.19,3.52,3.52,0,0,1,.87-1.6,1.89,1.89,0,0,1,1.05-.57l1.79-.34a1.86,1.86,0,0,0-.87.42,1.19,1.19,0,0,0-.18.15,2.94,2.94,0,0,0-.56.79,0,0,0,0,0,0,0,4.11,4.11,0,0,0-.3.77,7.1,7.1,0,0,0,1,5.64,3.89,3.89,0,0,0,.56.64,3,3,0,0,0,.8.56l.26.11a2.33,2.33,0,0,0,.57.09A1.37,1.37,0,0,0,448.44,200.38Z" transform="translate(-103 -65.45)"/><path class="cls-23" d="M465.75,263.73c-1.24,2.13-2.31,3.49-2.79,3.45a5.82,5.82,0,0,1-1.41-.5c-3.9-1.73-14-7.66-15.88-13,.54-.94,1.07-1.85,1.6-2.74C450.12,253.59,459,261.61,465.75,263.73Z" transform="translate(-103 -65.45)"/><path class="cls-6" d="M461.55,266.68c-1.77,2.25-5.12,6.36-8.6,10-6.07-5.86-8.55-13.94-9.55-19.1l2.27-3.91C447.52,259,457.65,265,461.55,266.68Z" transform="translate(-103 -65.45)"/><path class="cls-14" d="M392.4,317.81c-4.89,4.78-7.21,17.41-8.36,17.3a40.82,40.82,0,0,1-4.52-1.17c1.26-7.81,2.87-14.09,4.9-17.54,2.14-3.63,6.87-6.32,12.68-8.33a30.73,30.73,0,0,1,3,4.82C400.3,313.92,397.44,312.89,392.4,317.81Z" transform="translate(-103 -65.45)"/><path class="cls-24" d="M452.48,312.2s-1.62,6.4,6.1,9.39" transform="translate(-103 -65.45)"/><g class="cls-15"><path class="cls-16" d="M450.48,316.69s-.82.06-2.24.2" transform="translate(-103 -65.45)"/><path class="cls-25" d="M443.65,317.38c-12,1.44-36.15,5.36-39.91,14.06-4.24,9.83-11.2,58.07-13.31,73.16" transform="translate(-103 -65.45)"/><path class="cls-16" d="M390.11,406.89l-.31,2.22" transform="translate(-103 -65.45)"/></g><path class="cls-26" d="M394.12,427.67H356.54a6,6,0,0,1,1-3.29c2.16-3.42,7.4-5.72,11.41-7.27,2-.78,3.68-1.37,4.54-1.81,3.09-1.61,2.67-5.73,2.67-5.73a12.81,12.81,0,0,0,3.42,2.2c.33.14.65.27,1,.39h0a18.22,18.22,0,0,0,11.49-.14c.18-.08.43-.56.72-1.39l.51,6.41.57,7.34Z" transform="translate(-103 -65.45)"/><line class="cls-27" x1="289.78" y1="345.17" x2="289.78" y2="345.17"/><path class="cls-26" d="M341.81,409.87s-1.07,2.8-2.51,6.18c-1.14,2.68-2.52,5.73-3.79,8-1.15,2.11-2.21,3.59-2.91,3.59-2.4,0-27.83-14.55-30.35-21.54a8.46,8.46,0,0,1,2.94-1.69c3.53-1.17,7.67,0,12.28.32a31.11,31.11,0,0,0,3.22.08c7.34-.27,6.76-3.82,6.76-3.82.1.5,1.62,1.65,3.63,3,.8.52,1.67,1.06,2.57,1.6C337.31,407.77,341.32,409.87,341.81,409.87Z" transform="translate(-103 -65.45)"/><path class="cls-6" d="M379.59,411.77c-1.11,6-5.14,8.54-7.16,8.26-1.74-.24-3-2.12-3.47-2.92,2-.78,3.68-1.37,4.54-1.81,3.09-1.61,2.67-5.73,2.67-5.73A12.81,12.81,0,0,0,379.59,411.77Z" transform="translate(-103 -65.45)"/><path class="cls-6" d="M331.08,404c-3.09,4.91-9.82,5.64-11.53,5.14-1.37-.4-1.89-2.91-2.08-4.35a31.11,31.11,0,0,0,3.22.08c7.34-.27,6.76-3.82,6.76-3.82C327.55,401.52,329.07,402.67,331.08,404Z" transform="translate(-103 -65.45)"/><path class="cls-6" d="M335.51,424.08c-1.15,2.11-2.21,3.59-2.91,3.59-2.4,0-27.83-14.55-30.35-21.54a8.46,8.46,0,0,1,2.94-1.69C309.49,408.47,324.32,421.77,335.51,424.08Z" transform="translate(-103 -65.45)"/><path class="cls-6" d="M341.81,409.87s-1.07,2.8-2.51,6.18l-5.65-10.48C337.31,407.77,341.32,409.87,341.81,409.87Z" transform="translate(-103 -65.45)"/><path class="cls-6" d="M393.29,417c-5.6-.06-12.45-4.69-12.72-4.88a18.22,18.22,0,0,0,11.49-.14c.18-.08.43-.56.72-1.39Z" transform="translate(-103 -65.45)"/><path class="cls-28" d="M313.07,262.94a9,9,0,0,1,5.85-5.84c4.69-1.49,11.85,1.83,13.91,2.52s.52,3.33.52,3.33Z" transform="translate(-103 -65.45)"/><polygon class="cls-29" points="220.02 197.49 222.73 192.75 270.57 192.75 268.74 197.49 220.02 197.49"/><polygon class="cls-30" points="270.57 192.75 299.75 194.52 300.74 197.49 268.74 197.49 270.57 192.75"/><path class="cls-4" d="M456.44,427.67H431.69a3.1,3.1,0,0,1-3.08-3.4,3.2,3.2,0,0,1,3.22-2.79h0a9,9,0,0,0,9-9V350.31h6.41v62.18a9,9,0,0,0,9,9h0a3.2,3.2,0,0,1,3.22,2.79A3.1,3.1,0,0,1,456.44,427.67Z" transform="translate(-103 -65.45)"/><path class="cls-6" d="M456.44,427.67H436.51a3.09,3.09,0,0,1-3.08-3.4,3.19,3.19,0,0,1,3.21-2.79h0a9,9,0,0,0,9-9V350.31h1.6v62.18a9,9,0,0,0,9,9h0a3.2,3.2,0,0,1,3.22,2.79A3.1,3.1,0,0,1,456.44,427.67Z" transform="translate(-103 -65.45)"/><path class="cls-7" d="M529.33,221l0,.06L486.15,350.31H409.58a3.78,3.78,0,0,1-3.73-4.4l1.26-7.64a3.77,3.77,0,0,1,3.73-3.16h54.63a5.91,5.91,0,0,0,5.56-3.92L512.35,215.7a5.11,5.11,0,0,1,6.17-3.21l7.3,2A5.12,5.12,0,0,1,529.33,221Z" transform="translate(-103 -65.45)"/><path class="cls-6" d="M529.31,221.1,486.15,350.31H413.72l.72-4.37a3.78,3.78,0,0,1,3.73-3.16H472.8a5.9,5.9,0,0,0,5.56-3.92l41.32-115.49a5.12,5.12,0,0,1,6.17-3.21Z" transform="translate(-103 -65.45)"/><path class="cls-3" d="M447.27,344.06a1.6,1.6,0,0,1-1.61-1.61V299.29a1.61,1.61,0,0,1,1.61-1.6h38.26a1.6,1.6,0,0,1,1.2,2.67l-38.26,43.16A1.6,1.6,0,0,1,447.27,344.06Zm1.61-43.16v37.32L482,300.9Z" transform="translate(-103 -65.45)"/><path class="cls-4" d="M452.33,342.45a5.06,5.06,0,1,1-5.06-5.06A5.06,5.06,0,0,1,452.33,342.45Z" transform="translate(-103 -65.45)"/><path class="cls-4" d="M494.39,302.5h-65.7a3.21,3.21,0,0,1-3.2-3.21h0a3.2,3.2,0,0,1,3.2-3.2h65.7a3.21,3.21,0,0,1,3.21,3.2h0A3.21,3.21,0,0,1,494.39,302.5Z" transform="translate(-103 -65.45)"/><path class="cls-31" d="M277.62,280.13H222.91a8.23,8.23,0,0,1-2.39-.35,8.59,8.59,0,0,1,2.39-16.84h54.71a8.61,8.61,0,0,0-6.08,2.52,9,9,0,0,0-1.79,2.62,8.44,8.44,0,0,0-.72,3.46A8.6,8.6,0,0,0,277.62,280.13Z" transform="translate(-103 -65.45)"/><path class="cls-32" d="M423.44,271.54a8.59,8.59,0,0,1-8.58,8.59H277.62a8.6,8.6,0,0,1-8.59-8.59,8.44,8.44,0,0,1,.72-3.46,9,9,0,0,1,1.79-2.62,8.61,8.61,0,0,1,6.08-2.52H414.86A8.59,8.59,0,0,1,423.44,271.54Z" transform="translate(-103 -65.45)"/><path class="cls-6" d="M401.91,276.67a7.5,7.5,0,0,1-.85,3.46H222.91a8.23,8.23,0,0,1-2.39-.35,7.29,7.29,0,0,1-.69-3.11,8,8,0,0,1,3-6.07,11,11,0,0,1,7.16-2.52H391.79C397.38,268.08,401.91,271.93,401.91,276.67Z" transform="translate(-103 -65.45)"/><polygon class="cls-13" points="137.71 214.67 99.26 362.21 93.23 362.21 131.67 214.67 137.71 214.67"/><polygon class="cls-6" points="137.71 214.67 99.26 362.21 95.96 362.21 134.4 214.67 137.71 214.67"/><polygon class="cls-3" points="193.09 214.67 154.65 362.21 148.61 362.21 187.05 214.67 193.09 214.67"/><polygon class="cls-6" points="193.09 214.67 154.65 362.21 151.82 362.21 190.26 214.67 193.09 214.67"/><polygon class="cls-3" points="337.85 362.21 331.81 362.21 293.37 214.67 299.41 214.67 337.85 362.21"/><polygon class="cls-6" points="337.85 362.21 335.02 362.21 296.57 214.67 299.41 214.67 337.85 362.21"/><path class="cls-10" d="M467.66,149H381.52a5.39,5.39,0,0,1-5.39-5.39h0a5.39,5.39,0,0,1,5.39-5.38h86.14a5.38,5.38,0,0,1,5.39,5.38h0A5.39,5.39,0,0,1,467.66,149Z" transform="translate(-103 -65.45)"/><path class="cls-33" d="M395.87,169.43h0a2.78,2.78,0,0,1-2.78-2.78V149h5.56v17.61A2.79,2.79,0,0,1,395.87,169.43Z" transform="translate(-103 -65.45)"/><path class="cls-33" d="M453.49,169.43h0a2.79,2.79,0,0,1-2.78-2.78V149h5.56v17.61A2.78,2.78,0,0,1,453.49,169.43Z" transform="translate(-103 -65.45)"/><rect class="cls-33" x="297.11" y="43.03" width="5.75" height="29.78" rx="1.6"/><rect class="cls-33" x="336.83" y="43.03" width="5.76" height="29.78" rx="1.6"/><rect class="cls-12" x="302.87" y="43.03" width="10.44" height="29.78" rx="2.16"/><rect class="cls-5" x="424.54" y="108.49" width="10.44" height="29.78" rx="2.16" transform="translate(-30.49 -210.94) rotate(20.95)"/><path class="cls-7" d="M286.26,390.47,265,399.09l-26.16-64.38a11.47,11.47,0,0,1,6.3-14.93h0a11.45,11.45,0,0,1,14.92,6.3Z" transform="translate(-103 -65.45)"/><line class="cls-34" x1="142.16" y1="254.33" x2="169.84" y2="320.06"/><path class="cls-5" d="M276.3,398.54l-17.44-6.77a2.1,2.1,0,0,1-1.2-2.72l13.7-35.32a11.45,11.45,0,0,1,14.82-6.54h0A11.45,11.45,0,0,1,292.72,362L279,397.34A2.11,2.11,0,0,1,276.3,398.54Z" transform="translate(-103 -65.45)"/><line class="cls-34" x1="183.18" y1="281.74" x2="166.77" y2="322.27"/><path class="cls-5" d="M295.3,390.89l-1.95,10.91-3.62,20.14a6.76,6.76,0,0,1-6.69,5.73H256.5a6.76,6.76,0,0,1-6.69-5.73l-5.57-31.05a6.78,6.78,0,0,1,6.7-7.82H288.6A6.78,6.78,0,0,1,295.3,390.89Z" transform="translate(-103 -65.45)"/><path class="cls-6" d="M293.35,401.8l-3.62,20.14a6.76,6.76,0,0,1-6.69,5.73H263.88l-3.23-18.05a6.78,6.78,0,0,1,6.7-7.82Z" transform="translate(-103 -65.45)"/><rect class="cls-7" x="137.92" y="312.73" width="57.69" height="14.66" rx="5.63"/><path class="cls-7" d="M563.18,374H540.25l-.1-2.49-1.72-44.75-.36-9.4a11.45,11.45,0,0,1,11-11.88h.45a11.44,11.44,0,0,1,11.44,11l.4,10.28.24,6.29.52,13.3.62,16.18Z" transform="translate(-103 -65.45)"/><line class="cls-34" x1="446.07" y1="239.98" x2="449.71" y2="308.51"/><path class="cls-5" d="M582.23,353.81a11.41,11.41,0,0,1-2.82,7.52l-11,12.63H538l2.17-2.49,11.62-13.31,10.35-11.85,0,0a11.46,11.46,0,0,1,20.09,7.54Z" transform="translate(-103 -65.45)"/><line class="cls-34" x1="475.3" y1="279.72" x2="449.71" y2="308.51"/><rect class="cls-7" x="134.37" y="126.48" width="61.9" height="71.01" rx="3.94"/><rect class="cls-4" x="239.27" y="202.95" width="65.86" height="48.99" rx="1.37" transform="translate(396.64 -110.21) rotate(90)"/><polygon class="cls-23" points="146.05 197.49 138.71 197.49 157.94 126.48 165.28 126.48 146.05 197.49"/><polygon class="cls-23" points="165.58 197.49 150.71 197.49 169.93 126.48 184.8 126.48 165.58 197.49"/><rect class="cls-5" x="118.83" y="126.48" width="22.91" height="71.01" rx="2.4"/><path class="cls-6" d="M240.2,247.31h-4a1.22,1.22,0,0,1-1.22-1.22h0a1.22,1.22,0,0,1,1.22-1.22h4a1.23,1.23,0,0,1,1.23,1.22h0A1.22,1.22,0,0,1,240.2,247.31Z" transform="translate(-103 -65.45)"/><path class="cls-6" d="M229.5,247.31h-4a1.22,1.22,0,0,1-1.22-1.22h0a1.22,1.22,0,0,1,1.22-1.22h4a1.23,1.23,0,0,1,1.23,1.22h0A1.22,1.22,0,0,1,229.5,247.31Z" transform="translate(-103 -65.45)"/><path class="cls-35" d="M274.44,262.94c-5.27,1.69-5.89,10.36-6.49,18.75-.62,8.71-1.21,16.92-6.46,19.18a3.26,3.26,0,0,1-1.34.29,3.83,3.83,0,0,1-2.71-1.27c-5.77-5.69-8.32-30.72-.45-49.61,2.86-6.9,7.8-14.61,16.19-19.2l-.75,1.94c-7.27,4.5-11.65,11.48-14.26,17.75-7.55,18.13-5.23,42.87.17,48.21a2.28,2.28,0,0,0,2.64.72c4.54-2,5.12-10.16,5.69-18.1.54-7.59,1.1-15.4,5.07-18.66Z" transform="translate(-103 -65.45)"/><path class="cls-35" d="M291.32,227.64a.66.66,0,0,1-.65.64h-.43c-1,0-1.94,0-2.86.1.23-.45.46-.89.7-1.33.7,0,1.42-.06,2.15-.06h.46A.65.65,0,0,1,291.32,227.64Z" transform="translate(-103 -65.45)"/><path class="cls-35" d="M366.07,260.57a.65.65,0,0,1-.64.65c-.49,0-32.12.23-58.05.63-14.21.22-26.71.5-31.44.82a7.12,7.12,0,0,0-1.5.27h-2.7a7.15,7.15,0,0,1,4.12-1.56c4.56-.31,16.35-.57,29.93-.79,26.22-.42,59.13-.65,59.63-.65A.64.64,0,0,1,366.07,260.57Z" transform="translate(-103 -65.45)"/><path class="cls-36" d="M274.24,228.48c-.22.52-.43,1-.64,1.56-7.71,2.66-18.32,9-20.3,24.12-1.53,11.64-.5,21.21.32,28.9.94,8.78,1.56,14.59-2.5,17.23-2.07,1.36-5.58,3.21-9.24,3.21a9.49,9.49,0,0,1-4-.86c-4.41-2.05-7.21-7.62-8.34-16.56-2.06-16.35-.22-31.47,4.59-37.62a7,7,0,0,1,4.67-3,.64.64,0,0,1,.16,1.28,5.8,5.8,0,0,0-3.81,2.47c-4.61,5.9-6.35,20.64-4.34,36.67,1.07,8.47,3.63,13.71,7.61,15.55,4.36,2,9.4-.55,12-2.25,3.4-2.22,2.81-7.71,1.92-16-.83-7.76-1.86-17.41-.32-29.2C254.18,237.53,266.16,231,274.24,228.48Z" transform="translate(-103 -65.45)"/><path class="cls-4" d="M233.29,209h0a6,6,0,0,1-6-6h0a6,6,0,0,1,6-6h0a6,6,0,0,1,6,6h0A6,6,0,0,1,233.29,209Z" transform="translate(-103 -65.45)"/><path class="cls-4" d="M235.27,212.46h-4a1.22,1.22,0,0,1-1.22-1.22h0A1.22,1.22,0,0,1,231.3,210h4a1.22,1.22,0,0,1,1.22,1.22h0A1.21,1.21,0,0,1,235.27,212.46Z" transform="translate(-103 -65.45)"/><path class="cls-4" d="M235.27,215.9h-4a1.22,1.22,0,0,1-1.22-1.22h0a1.23,1.23,0,0,1,1.22-1.23h4a1.22,1.22,0,0,1,1.22,1.23h0A1.22,1.22,0,0,1,235.27,215.9Z" transform="translate(-103 -65.45)"/><path class="cls-6" d="M240.94,220H225.63a1.22,1.22,0,0,1-1.22-1.22h0a1.22,1.22,0,0,1,1.22-1.22h15.31a1.22,1.22,0,0,1,1.22,1.22h0A1.21,1.21,0,0,1,240.94,220Z" transform="translate(-103 -65.45)"/><path class="cls-6" d="M240.94,225.76H225.63a1.22,1.22,0,0,1-1.22-1.22h0a1.22,1.22,0,0,1,1.22-1.22h15.31a1.21,1.21,0,0,1,1.22,1.22h0A1.22,1.22,0,0,1,240.94,225.76Z" transform="translate(-103 -65.45)"/><path class="cls-6" d="M240.94,231.54H225.63a1.22,1.22,0,0,1-1.22-1.22h0a1.22,1.22,0,0,1,1.22-1.22h15.31a1.22,1.22,0,0,1,1.22,1.22h0A1.21,1.21,0,0,1,240.94,231.54Z" transform="translate(-103 -65.45)"/><path class="cls-6" d="M240.94,237.33H225.63a1.22,1.22,0,0,1-1.22-1.22h0a1.22,1.22,0,0,1,1.22-1.22h15.31a1.21,1.21,0,0,1,1.22,1.22h0A1.22,1.22,0,0,1,240.94,237.33Z" transform="translate(-103 -65.45)"/><path class="cls-4" d="M227.36,241.23a1.21,1.21,0,1,1-1.2-1.2A1.21,1.21,0,0,1,227.36,241.23Z" transform="translate(-103 -65.45)"/><path class="cls-4" d="M231.77,241.23a1.21,1.21,0,1,1-1.2-1.2A1.21,1.21,0,0,1,231.77,241.23Z" transform="translate(-103 -65.45)"/><path class="cls-4" d="M236.18,241.23A1.21,1.21,0,1,1,235,240,1.21,1.21,0,0,1,236.18,241.23Z" transform="translate(-103 -65.45)"/><path class="cls-4" d="M240.59,241.23a1.21,1.21,0,1,1-1.2-1.2A1.21,1.21,0,0,1,240.59,241.23Z" transform="translate(-103 -65.45)"/><rect class="cls-37" x="179.31" y="96.91" width="67.13" height="72.63" rx="2.41"/><rect class="cls-19" x="176.11" y="96.91" width="67.12" height="72.63" rx="2.4"/><path class="cls-6" d="M334.75,177.25V235H281.51a2.4,2.4,0,0,1-2.4-2.4V174.85h53.24A2.4,2.4,0,0,1,334.75,177.25Z" transform="translate(-103 -65.45)"/><path class="cls-6" d="M304,206.52c0,6.37-2,11.79-4.7,13.76a3.9,3.9,0,0,1-2.29.81,3.85,3.85,0,0,1-2.18-.73C292,218.45,290,213,290,206.52c0-8.06,3.13-14.58,7-14.58S304,198.46,304,206.52Z" transform="translate(-103 -65.45)"/><path class="cls-3" d="M301.8,207.25c0,3.75-1.15,6.94-2.76,8.1a2.23,2.23,0,0,1-1.34.47,2.27,2.27,0,0,1-1.29-.43c-1.64-1.12-2.82-4.34-2.82-8.14,0-4.74,1.83-8.57,4.11-8.57S301.8,202.51,301.8,207.25Z" transform="translate(-103 -65.45)"/><path class="cls-13" d="M300.63,207.25c0,3.75-1.16,6.94-2.76,8.1a2.28,2.28,0,0,1-1.35.47,2.24,2.24,0,0,1-1.28-.43c-1.64-1.12-2.83-4.34-2.83-8.14,0-4.74,1.84-8.57,4.11-8.57S300.63,202.51,300.63,207.25Z" transform="translate(-103 -65.45)"/><path class="cls-3" d="M307.9,262.94H264.06s.79-4.35,2.41-10.71c.34-1.38.74-2.84,1.16-4.38,1.26-4.53,2.85-9.67,4.8-14.83l.75-1.94h0c.14-.34.27-.69.42-1,.21-.52.42-1,.64-1.56,3.68-8.72,8.39-16.94,14.17-21.66A22.54,22.54,0,0,1,291,205a16.46,16.46,0,0,1,4.72-1.94c3.87-.9,2.9,7.95,1.76,9.71a125.15,125.15,0,0,0-9.36,14.28c-.24.44-.47.88-.7,1.33-3.86,7.38-6.93,16.08-5.06,23.1a1.47,1.47,0,0,0,.69.72c3.32,2.12,17.4,5.11,22.78,8.39a6.67,6.67,0,0,1,1.59,1.26A2,2,0,0,1,307.9,262.94Z" transform="translate(-103 -65.45)"/><path class="cls-6" d="M297.44,212.77c-1.15,1.75-19,23.92-15.12,38.71a1.47,1.47,0,0,0,.69.72c-2.63-.93-5.11-2.61-4.74-5.6.3-19.7,16.19-34.67,15-38.44A5.73,5.73,0,0,0,291,205a16.46,16.46,0,0,1,4.72-1.94C299.55,202.16,298.58,211,297.44,212.77Z" transform="translate(-103 -65.45)"/><path class="cls-6" d="M294.31,262.94H264.06s.79-4.35,2.41-10.71c1.85,5.42,6.79,7.76,14.09,8.35A64.11,64.11,0,0,1,294.31,262.94Z" transform="translate(-103 -65.45)"/><path class="cls-23" d="M284.07,217.6c-9.16,9.45-11.15,28.08-13.14,29.88a2.6,2.6,0,0,1-3.3.37c3.77-13.61,10.61-32.73,20.78-41C289.35,209.26,288.56,213,284.07,217.6Z" transform="translate(-103 -65.45)"/><rect class="cls-3" x="186.24" y="160.49" width="3.2" height="3.2" rx="1.34"/><rect class="cls-3" x="202.56" y="160.49" width="3.2" height="3.2" rx="1.25"/><rect class="cls-3" x="207.49" y="160.49" width="3.2" height="3.2" rx="1.25"/><rect class="cls-3" x="212.41" y="160.49" width="3.2" height="3.2" rx="1.25"/><rect class="cls-3" x="187.67" y="115.58" width="14.66" height="4.81"/></g></g></svg>